<svg xmlns="http://www.w3.org/2000/svg" viewBox="0 0 500 500"><g id="freepik--background-complete--inject-3"><path d="M87.59,374.75,74.47,375l-6.66.11c-2.23,0-4.47,0-6.7.05h-.44v-.45l-.06-11.19v-.5h.5l13.24.06c4.42,0,8.83.11,13.24.16h.28v.27c0,1.9-.09,3.78-.13,5.65Zm0,0-.14-5.66c0-1.86-.11-3.7-.13-5.53l.27.27c-4.41.05-8.82.16-13.24.16l-13.24.07.5-.5,0,11.19-.45-.45c2.18,0,4.36,0,6.55.06l6.58.11Z" style="fill:#ebebeb"></path><path d="M72.82,388.86l-13.12.28-6.66.11c-2.23,0-4.47,0-6.7.05H45.9v-.45l-.06-11.19v-.51h.5l13.24.06c4.41,0,8.83.11,13.24.16h.28v.27c0,1.9-.08,3.78-.13,5.65Zm0,0-.14-5.66c-.05-1.86-.11-3.7-.13-5.53l.27.27c-4.41.05-8.83.16-13.24.16l-13.24.07.5-.5-.05,11.19-.45-.45c2.18,0,4.36,0,6.55.06l6.58.11Z" style="fill:#ebebeb"></path><path d="M102.16,388.86,89,389.14l-6.66.11c-2.23,0-4.47,0-6.7.05h-.44v-.45l-.06-11.19v-.51h.5l13.24.06c4.42,0,8.83.11,13.24.16h.28v.27c0,1.9-.09,3.78-.14,5.65Zm0,0L102,383.2c0-1.86-.11-3.7-.13-5.53l.27.27c-4.41.05-8.82.16-13.24.16l-13.24.07.5-.5-.05,11.19-.45-.45c2.18,0,4.36,0,6.55.06l6.58.11Z" style="fill:#ebebeb"></path><path d="M122.79,214.2l-13.13.27-6.66.12c-2.22,0-4.46,0-6.69,0h-.45v-.45l0-11.18v-.51h.5l13.24.06c4.41,0,8.83.11,13.24.16h.27V203c0,1.89-.08,3.78-.13,5.65Zm0,0-.14-5.66c-.05-1.86-.12-3.7-.13-5.53l.27.27c-4.41.05-8.83.16-13.24.16l-13.24.06.5-.49-.06,11.18-.44-.44c2.18,0,4.36,0,6.54.05l6.58.12Z" style="fill:#ebebeb"></path><path d="M108,228.3l-13.13.28-6.66.12c-2.22,0-4.46,0-6.69.05h-.45v-.45l0-11.18v-.51h.51l13.24.06c4.41,0,8.82.11,13.24.16h.27v.27c0,1.89-.09,3.78-.13,5.65Zm0,0-.15-5.65c0-1.86-.11-3.7-.13-5.53l.28.27c-4.42.05-8.83.16-13.24.16l-13.24.06.5-.49L82,228.3l-.44-.44c2.18,0,4.35,0,6.54,0l6.58.12Z" style="fill:#ebebeb"></path><path d="M453.66,259.61l-13.13.28-6.66.11c-2.22,0-4.46,0-6.69.05h-.45v-.45l-.05-11.19v-.5h.5l13.24.06c4.41,0,8.83.11,13.24.16h.27v.27c0,1.9-.08,3.78-.13,5.65Zm0,0-.14-5.66c0-1.86-.12-3.7-.13-5.53l.27.27c-4.41.05-8.83.16-13.24.16l-13.24.07.5-.5-.06,11.19-.44-.45c2.18,0,4.36,0,6.54.06l6.58.11Z" style="fill:#ebebeb"></path><path d="M438.89,61.14l-13.13.28-6.66.11c-2.22,0-4.46,0-6.69.06H412v-.45l0-11.19v-.5h.51l13.24.06c4.41,0,8.82.12,13.24.17h.27V50c0,1.9-.09,3.79-.13,5.66Zm0,0-.14-5.65c-.05-1.87-.12-3.71-.14-5.54l.28.27c-4.42.06-8.83.16-13.24.17l-13.24.06.5-.5-.06,11.19-.44-.44c2.18,0,4.35,0,6.54,0l6.58.11Z" style="fill:#ebebeb"></path><path d="M453.66,75.25l-13.13.28-6.66.11c-2.22,0-4.46,0-6.69.06h-.45v-.45l-.05-11.19v-.5h.5l13.24.06c4.41,0,8.83.12,13.24.17h.27v.27c0,1.9-.08,3.79-.13,5.66Zm0,0-.14-5.65c0-1.87-.12-3.71-.13-5.54l.27.27c-4.41.06-8.83.16-13.24.17l-13.24.06.5-.5-.06,11.19-.44-.44c2.18,0,4.36,0,6.54,0l6.58.11Z" style="fill:#ebebeb"></path><path d="M87.59,61.14l-13.12.28-6.66.11c-2.23,0-4.47,0-6.7.06h-.44v-.45L60.61,50v-.5h.5l13.24.06c4.42,0,8.83.12,13.24.17h.28V50c0,1.9-.09,3.79-.13,5.66Zm0,0-.14-5.65c0-1.87-.11-3.71-.13-5.54l.27.27c-4.41.06-8.82.16-13.24.17l-13.24.06.5-.5,0,11.19-.45-.44c2.18,0,4.36,0,6.55,0l6.58.11Z" style="fill:#ebebeb"></path><path d="M390.44,379.77l-13.12.28-6.66.11c-2.23,0-4.47,0-6.7.06h-.44v-.45l-.06-11.19v-.5h.5l13.24.07c4.41,0,8.83.11,13.24.16h.28v.27c0,1.9-.08,3.79-.13,5.66Zm0,0-.14-5.65c-.05-1.86-.11-3.71-.13-5.54l.27.28c-4.41.05-8.83.15-13.24.16l-13.24.06.5-.5,0,11.19-.45-.44c2.18,0,4.36,0,6.55.05l6.58.11Z" style="fill:#ebebeb"></path><path d="M406.34,201.49a21.26,21.26,0,0,0,5.36,4.21,21.79,21.79,0,1,0-5.36-4.21Z" style="fill:#ebebeb"></path><path d="M416.61,182.5a6.64,6.64,0,1,0,8.16-4.63A6.63,6.63,0,0,0,416.61,182.5Z" style="fill:#fff"></path><path d="M407.07,198.85l-.73,2.64a21.26,21.26,0,0,0,5.36,4.21,21.67,21.67,0,0,0,16.74,1.89l.73-2.63a11.46,11.46,0,0,0-22.1-6.11Z" style="fill:#fff"></path><path d="M73.78,346.64a29.24,29.24,0,0,0,9,2.33,29.78,29.78,0,1,0-9-2.33Z" style="fill:#ebebeb"></path><path d="M76.19,317.27A9.06,9.06,0,1,0,83.86,307,9.05,9.05,0,0,0,76.19,317.27Z" style="fill:#fff"></path><path d="M73.24,342.94l.54,3.7a29.24,29.24,0,0,0,9,2.33,29.65,29.65,0,0,0,22-6.83l-.54-3.68a15.66,15.66,0,0,0-31,4.48Z" style="fill:#fff"></path><path d="M147.39,113.89c-5,12.94-18.88,21.62-18.88,21.62s-15.27-6-22.53-17.78c-6.06-9.83-3.86-21.28,4-24.46C121.18,88.71,126,108.55,126,108.55s1.09-20.39,13-18C147.27,92.27,151.54,103.11,147.39,113.89Z" style="fill:#ebebeb"></path><path d="M111.31,148.24c2.36,7.8-.94,16.85-.94,16.85s-9.25,2.74-16.88-.1c-6.37-2.38-9.48-8.48-7-12.79,3.56-6.17,13,1.28,13,1.28s-6.86-9.85-.47-13C103.44,138.25,109.34,141.73,111.31,148.24Z" style="fill:#ebebeb"></path><path d="M397.94,264.59c-11.08,8.32-27.47,8.32-27.47,8.32s-9.77-13.17-9.68-27c.08-11.56,8-20.09,16.34-18.64,11.94,2.09,5.52,21.47,5.52,21.47s11.74-16.71,20.53-8.35C409.31,246.19,407.18,257.65,397.94,264.59Z" style="fill:#ebebeb"></path><g id="freepik--xsrjP0--inject-3"><path d="M371.25,127c-.89-.8-1.61-1.86-3-2-.52,0-.34-.44-.29-.72q1.26-7.57,2.53-15.15c.06-.36.14-.66.57-.8,4.18-1.29,6.5-4.84,9.41-7.71a15.33,15.33,0,0,0,4.72-11c0-1.16.64-1.58,1.71-1.64a2.56,2.56,0,0,1,2.73,1.39,20.81,20.81,0,0,1,1.09,7c-.1,1.95-1.1,3.7-1.66,5.55-.41,1.36-1,2.67-1.46,4,.3.31.71.24,1.08.31l12.79,2.15c1.8.31,2.59,1,2.64,2.2a3.46,3.46,0,0,1-2.48,3.39c-.34.11-.9-.13-1,.36s.48.55.74.8c1.37,1.32.71,3.46-1.29,4.42-.48.23-1.29,0-1.41.58s.68.62,1,1c1,1.44,0,3.63-2,4.25a6.66,6.66,0,0,0-.8.16c-.23.11-.47.23-.1.59,1.62,1.63,1.27,3.47-.81,4.49l-.62.31a3.65,3.65,0,0,1-2.33.11q-10-1.66-20.07-3.36A2.41,2.41,0,0,1,371.25,127Z" style="fill:#ebebeb;fill-rule:evenodd"></path><path d="M353.73,114.89c.54-3.2,1.09-6.41,1.6-9.62.11-.66.23-1,1-.82q5.85,1,11.73,2c.77.12.85.41.73,1.09q-1.67,9.67-3.25,19.37c-.13.82-.4,1-1.22.86-3.79-.68-7.58-1.33-11.38-1.9-1-.15-1-.5-.88-1.32C352.68,121.32,353.19,118.1,353.73,114.89Z" style="fill:#ebebeb;fill-rule:evenodd"></path></g><g id="freepik--xsrjp0--inject-3"><path d="M139.51,232.07c-1-.12-2-.51-2.94.05-.37.22-.43-.14-.53-.36q-2.64-5.73-5.27-11.47a.65.65,0,0,1,0-.8c2.24-2.81,2.18-6.29,2.83-9.59a12.52,12.52,0,0,0-1.86-9.65,1.26,1.26,0,0,1,.4-1.91,2.11,2.11,0,0,1,2.5-.31,17,17,0,0,1,4,4.24c.83,1.38,1,3,1.44,4.55.35,1.11.58,2.26.87,3.41.34.07.59-.16.87-.28l9.69-4.45c1.36-.62,2.21-.54,2.81.28a2.85,2.85,0,0,1-.12,3.45c-.18.23-.67.32-.53.71s.58.16.88.21c1.53.26,2.08,2,1.16,3.6-.22.37-.9.56-.69,1s.75.11,1.14.26c1.37.5,1.7,2.45.62,3.8-.14.18-.36.3-.47.48s-.21.38.2.46c1.86.35,2.46,1.76,1.52,3.42l-.28.5a3,3,0,0,1-1.53,1.15l-15.2,7A1.93,1.93,0,0,1,139.51,232.07Z" style="fill:#ebebeb;fill-rule:evenodd"></path><path d="M122,231.94c-1.11-2.43-2.21-4.87-3.35-7.29-.23-.49-.29-.76.32-1q4.47-2,8.89-4.07c.58-.28.76-.12,1,.4q3.33,7.35,6.73,14.67c.29.62.2.87-.43,1.15-2.89,1.29-5.77,2.6-8.62,4-.71.34-.93.14-1.2-.49C124.26,236.79,123.12,234.37,122,231.94Z" style="fill:#ebebeb;fill-rule:evenodd"></path></g></g></svg>