<svg xmlns="http://www.w3.org/2000/svg" width="20.115" height="15.085" viewBox="0 0 20.115 15.085">
  <g id="Icon_3" data-name="Icon 3" transform="translate(0 -64.008)">
    <g id="Group_6" data-name="Group 6" transform="translate(7.564 69.058)">
      <g id="Group_5" data-name="Group 5" transform="translate(0 0)">
        <path id="Path_6" data-name="Path 6" d="M197.413,192.665a.419.419,0,0,0-.593.593,2.514,2.514,0,1,1-3.555,3.555.419.419,0,0,0-.593.593,3.352,3.352,0,1,0,4.74-4.74Z" transform="translate(-192.55 -192.542)" fill="#777"/>
      </g>
    </g>
    <g id="Group_8" data-name="Group 8" transform="translate(6.705 68.198)">
      <g id="Group_7" data-name="Group 7" transform="translate(0 0)">
        <path id="Path_7" data-name="Path 7" d="M174.6,170.717a3.319,3.319,0,0,0-3.937,3.295,3.281,3.281,0,0,0,.059.584.42.42,0,0,0,.412.346.371.371,0,0,0,.074-.007.42.42,0,0,0,.339-.485,2.43,2.43,0,0,1-.045-.438,2.484,2.484,0,0,1,2.953-2.47.419.419,0,0,0,.146-.825Z" transform="translate(-170.668 -170.659)" fill="#777"/>
      </g>
    </g>
    <g id="Group_10" data-name="Group 10" transform="translate(5.242 66.854)">
      <g id="Group_9" data-name="Group 9" transform="translate(0 0)">
        <path id="Path_8" data-name="Path 8" d="M148.208,140.887a20.357,20.357,0,0,0-5.489-4.378.419.419,0,1,0-.385.745,19.693,19.693,0,0,1,4.991,3.9c-1,1.082-4.931,5.029-9.075,5.029a9.663,9.663,0,0,1-4.214-1.01.419.419,0,1,0-.364.754,10.48,10.48,0,0,0,4.578,1.094c5.164,0,9.765-5.367,9.958-5.6A.419.419,0,0,0,148.208,140.887Z" transform="translate(-133.435 -136.461)" fill="#777"/>
      </g>
    </g>
    <g id="Group_12" data-name="Group 12" transform="translate(0 65.684)">
      <g id="Group_11" data-name="Group 11" transform="translate(0 0)">
        <path id="Path_9" data-name="Path 9" d="M12.807,107.142a8.653,8.653,0,0,0-2.75-.483c-5.164,0-9.765,5.367-9.958,5.6a.419.419,0,0,0-.023.51,15.558,15.558,0,0,0,3.844,3.645.416.416,0,0,0,.58-.118.418.418,0,0,0-.117-.58A15.326,15.326,0,0,1,.96,112.548c.965-1.048,4.922-5.051,9.1-5.051a7.844,7.844,0,0,1,2.482.438.413.413,0,0,0,.531-.263A.418.418,0,0,0,12.807,107.142Z" transform="translate(0 -106.659)" fill="#777"/>
      </g>
    </g>
    <g id="Group_14" data-name="Group 14" transform="translate(2.514 64.008)">
      <g id="Group_13" data-name="Group 13">
        <path id="Path_10" data-name="Path 10" d="M78.959,64.131a.419.419,0,0,0-.593,0L64.119,78.379a.419.419,0,0,0,.593.593L78.959,64.723A.419.419,0,0,0,78.959,64.131Z" transform="translate(-63.996 -64.008)" fill="#777"/>
      </g>
    </g>
  </g>
</svg>
