<svg xmlns="http://www.w3.org/2000/svg" width="26.484" height="30" viewBox="0 0 26.484 30">
  <g id="Icon_23" data-name="Icon 23" transform="translate(-30)">
    <g id="Group_64" data-name="Group 64" transform="translate(30 4.308)">
      <g id="Group_63" data-name="Group 63">
        <path id="Path_153" data-name="Path 153" d="M47.971,73.6a1.172,1.172,0,0,0-.837,2.189,10.9,10.9,0,1,1-7.784,0,1.172,1.172,0,1,0-.837-2.189,13.242,13.242,0,1,0,9.458,0Z" transform="translate(-30 -73.519)" fill="#707070"/>
      </g>
    </g>
    <g id="Group_66" data-name="Group 66" transform="translate(42.07)">
      <g id="Group_65" data-name="Group 65">
        <path id="Path_154" data-name="Path 154" d="M237.172,0A1.172,1.172,0,0,0,236,1.172V12.648a1.172,1.172,0,0,0,2.344,0V1.172A1.172,1.172,0,0,0,237.172,0Z" transform="translate(-236)" fill="#707070"/>
      </g>
    </g>
  </g>
</svg>
