<svg xmlns="http://www.w3.org/2000/svg" viewBox="0 0 500 500"><g id="freepik--Floor--inject-4"><path d="M125.23,389.24c68.91,32.84,180.63,32.85,249.54,0s68.9-86.09,0-118.93-180.63-32.84-249.54,0S56.33,356.4,125.23,389.24Z" style="fill:#f5f5f5"></path></g><g id="freepik--Device--inject-4"><path d="M217.88,358.05l94-54.28a1.06,1.06,0,0,0,0-2l-8.69-5a3.86,3.86,0,0,0-3.47,0L205.69,351a1.06,1.06,0,0,0,0,2l8.72,5A3.86,3.86,0,0,0,217.88,358.05Z" style="fill:#e0e0e0"></path><path d="M309.3,94.2l-84.76,48.94a9.58,9.58,0,0,0-4.33,7.5V351.71c0,2.76,1.94,3.88,4.33,2.5l84.76-48.94a9.55,9.55,0,0,0,4.33-7.5V96.7C313.63,93.94,311.7,92.82,309.3,94.2Z" style="fill:#455a64"></path><path d="M224.54,143.14,309.3,94.2c2.14-1.24,3.91-.47,4.27,1.68a9.68,9.68,0,0,0-4.27-6.68l-3.52-2a9.57,9.57,0,0,0-8.66,0L212.35,136.1a8.91,8.91,0,0,0-3.06,3.23l12.19,7A8.75,8.75,0,0,1,224.54,143.14Z" style="fill:#37474f"></path><path d="M208,344.67a9.58,9.58,0,0,0,4.33,7.5l3.53,2a9.7,9.7,0,0,0,7.92.34c-2,.78-3.59-.37-3.59-2.84V150.64a8.8,8.8,0,0,1,1.27-4.27l-12.19-7A8.91,8.91,0,0,0,208,143.6Z" style="fill:#263238"></path><path d="M226.87,169.93,307,123.68c1.44-.82,2.6-.15,2.6,1.5V274a5.73,5.73,0,0,1-2.6,4.5l-80.1,46.25c-1.44.83-2.6.16-2.6-1.5V174.43A5.74,5.74,0,0,1,226.87,169.93Z" style="fill:#fff"></path><path d="M266.92,126.29a3.38,3.38,0,0,0-1.52,2.64c0,1,.68,1.37,1.52.88a3.35,3.35,0,0,0,1.52-2.64C268.44,126.2,267.76,125.81,266.92,126.29Z" style="fill:#37474f"></path><path d="M266.92,308.74a13.3,13.3,0,0,0-6,10.42c0,3.83,2.69,5.39,6,3.47a13.31,13.31,0,0,0,6-10.42C272.94,308.38,270.24,306.82,266.92,308.74Z" style="fill:#37474f"></path><path d="M252.53,141.77a6.73,6.73,0,0,0-3,5.28c0,1.94,1.36,2.73,3,1.76a6.73,6.73,0,0,0,3.05-5.28C255.58,141.59,254.22,140.8,252.53,141.77Z" style="fill:#37474f"></path><path d="M260,141.11c0,1.3,1,1.79,2.17,1.1l20-11.57a4.64,4.64,0,0,0,2.17-3.6c0-1.29-1-1.78-2.17-1.09l-20,11.57A4.64,4.64,0,0,0,260,141.11Z" style="fill:#37474f"></path><path d="M214.76,176.37a5.39,5.39,0,0,1,2.44,4.22c0,1.56-1.09,2.19-2.44,1.41a5.4,5.4,0,0,1-2.43-4.22C212.33,176.23,213.42,175.6,214.76,176.37Z" style="fill:#37474f"></path><path d="M214.76,195.15a5.39,5.39,0,0,1,2.44,4.22c0,1.55-1.09,2.18-2.44,1.41a5.4,5.4,0,0,1-2.43-4.22C212.33,195,213.42,194.37,214.76,195.15Z" style="fill:#37474f"></path><path d="M214,176.75a5.39,5.39,0,0,1,2.44,4.22c0,1.55-1.09,2.18-2.44,1.41a5.39,5.39,0,0,1-2.44-4.22C211.57,176.6,212.66,176,214,176.75Z" style="fill:#455a64"></path><path d="M214,195.52a5.39,5.39,0,0,1,2.44,4.23c0,1.55-1.09,2.18-2.44,1.4a5.36,5.36,0,0,1-2.44-4.22C211.57,195.38,212.66,194.75,214,195.52Z" style="fill:#455a64"></path><path d="M325.82,129.89c0-1.66-1.16-2.33-2.6-1.5l-9.59,5.53-70.51,40.72a5.73,5.73,0,0,0-2.6,4.5V327.92c0,1.66,1.16,2.33,2.6,1.5l70.54-40.73,9.56-5.52a5.73,5.73,0,0,0,2.6-4.5Z" style="fill:#fff"></path><path d="M326.82,129.89a2.57,2.57,0,0,0-4.1-2.37l-9.15,5.29h0l-70.95,41a6.66,6.66,0,0,0-3.1,5.37V327.92a2.77,2.77,0,0,0,1.26,2.55,2.29,2.29,0,0,0,1.18.31,3.42,3.42,0,0,0,1.66-.49l71-41h0l9.13-5.27a6.75,6.75,0,0,0,3.1-5.37ZM313.59,287.58l0,0-.82.48h0l-70.11,40.48a1,1,0,0,1-.84.18c-.13-.08-.26-.36-.26-.82V179.14a4.81,4.81,0,0,1,2.1-3.64L313.7,135h0l10-5.79a1,1,0,0,1,.84-.18c.13.08.26.36.26.82V278.67a4.81,4.81,0,0,1-2.1,3.64l-9.13,5.27Z" style="fill:#A1C7EB"></path><path d="M283.17,164.46c9-5.18,16.25-1,16.25,9.39s-7.28,23-16.25,28.14-16.25,1-16.25-9.38S274.2,169.65,283.17,164.46Z" style="fill:#A1C7EB"></path><path d="M283.17,172.62c2.91-1.68,5.27-.32,5.27,3a11.65,11.65,0,0,1-5.27,9.13c-2.91,1.68-5.27.32-5.27-3A11.65,11.65,0,0,1,283.17,172.62Z" style="fill:#A1C7EB"></path><path d="M293.44,190.54c0-5.52-3.87-7.76-8.66-5l-3,1.73c-4.78,2.76-8.66,9.48-8.66,15v1.49c2.77.91,6.25.42,10-1.77a32,32,0,0,0,10.27-10.17Z" style="fill:#A1C7EB"></path><path d="M283.17,172.62c2.91-1.68,5.27-.32,5.27,3a11.65,11.65,0,0,1-5.27,9.13c-2.91,1.68-5.27.32-5.27-3A11.65,11.65,0,0,1,283.17,172.62Z" style="fill:#fff;opacity:0.7000000000000001"></path><path d="M293.44,190.54c0-5.52-3.87-7.76-8.66-5l-3,1.73c-4.78,2.76-8.66,9.48-8.66,15v1.49c2.77.91,6.25.42,10-1.77a32,32,0,0,0,10.27-10.17Z" style="fill:#fff;opacity:0.7000000000000001"></path><path d="M251.73,224.84l20.91-12.07c1-.55,1.73-.11,1.73,1v.69a3.82,3.82,0,0,1-1.73,3l-20.91,12.07c-.95.55-1.73.1-1.73-1v-.69A3.83,3.83,0,0,1,251.73,224.84Z" style="fill:#A1C7EB"></path><path d="M251.73,224.84l20.91-12.07c1-.55,1.73-.11,1.73,1v.69a3.82,3.82,0,0,1-1.73,3l-20.91,12.07c-.95.55-1.73.1-1.73-1v-.69A3.83,3.83,0,0,1,251.73,224.84Z" style="opacity:0.1"></path><path d="M250.87,239.41l63.26-36.52c.47-.28.86-.06.86.5v7.38a1.94,1.94,0,0,1-.86,1.5l-63.26,36.52c-.48.28-.87.05-.87-.5v-7.38A1.92,1.92,0,0,1,250.87,239.41Z" style="fill:#A1C7EB"></path><path d="M250.87,239.41l63.26-36.52c.47-.28.86-.06.86.5v7.38a1.94,1.94,0,0,1-.86,1.5l-63.26,36.52c-.48.28-.87.05-.87-.5v-7.38A1.92,1.92,0,0,1,250.87,239.41Z" style="fill:#fff;opacity:0.2"></path><path d="M251.73,257.67l20.91-12.07c1-.55,1.73-.1,1.73,1v.69a3.81,3.81,0,0,1-1.73,3l-20.91,12.07c-.95.56-1.73.11-1.73-1v-.69A3.85,3.85,0,0,1,251.73,257.67Z" style="fill:#A1C7EB"></path><path d="M251.73,257.67l20.91-12.07c1-.55,1.73-.1,1.73,1v.69a3.81,3.81,0,0,1-1.73,3l-20.91,12.07c-.95.56-1.73.11-1.73-1v-.69A3.85,3.85,0,0,1,251.73,257.67Z" style="opacity:0.1"></path><path d="M250.87,272.24l63.26-36.52c.47-.28.86-.05.86.5v7.38a1.94,1.94,0,0,1-.86,1.5l-63.26,36.52c-.48.28-.87.06-.87-.5v-7.38A1.92,1.92,0,0,1,250.87,272.24Z" style="fill:#A1C7EB"></path><path d="M250.87,272.24l63.26-36.52c.47-.28.86-.05.86.5v7.38a1.94,1.94,0,0,1-.86,1.5l-63.26,36.52c-.48.28-.87.06-.87-.5v-7.38A1.92,1.92,0,0,1,250.87,272.24Z" style="fill:#fff;opacity:0.2"></path><path d="M276.1,276.43l25-14.41c1-.56,1.74-.11,1.74,1v7.72a3.82,3.82,0,0,1-1.74,3l-25,14.42c-1,.55-1.73.1-1.73-1v-7.73A3.86,3.86,0,0,1,276.1,276.43Z" style="fill:#A1C7EB"></path><path d="M276.1,276.43l25-14.41c1-.56,1.74-.11,1.74,1v7.72a3.82,3.82,0,0,1-1.74,3l-25,14.42c-1,.55-1.73.1-1.73-1v-7.73A3.86,3.86,0,0,1,276.1,276.43Z" style="opacity:0.1"></path></g></svg>