<svg xmlns="http://www.w3.org/2000/svg" width="19.243" height="21.894" viewBox="0 0 19.243 21.894">
  <g id="Icon_11" data-name="Icon 11" transform="translate(0)">
    <g id="Group_24" data-name="Group 24" transform="translate(3.849)">
      <g id="Group_23" data-name="Group 23">
        <path id="Path_20" data-name="Path 20" d="M126.773,0a5.773,5.773,0,1,0,5.773,5.773A5.779,5.779,0,0,0,126.773,0Zm0,10.263a4.49,4.49,0,1,1,4.49-4.49A4.5,4.5,0,0,1,126.773,10.263Z" transform="translate(-121)" fill="#777"/>
      </g>
    </g>
    <g id="Group_26" data-name="Group 26" transform="translate(0 12.828)">
      <g id="Group_25" data-name="Group 25">
        <path id="Path_21" data-name="Path 21" d="M47.8,302.488A8.229,8.229,0,0,0,41.9,300H39.338a8.229,8.229,0,0,0-5.9,2.488A8.413,8.413,0,0,0,31,308.424a.641.641,0,0,0,.641.641H49.6a.641.641,0,0,0,.641-.641A8.413,8.413,0,0,0,47.8,302.488Zm-15.493,5.294a7.1,7.1,0,0,1,7.027-6.5H41.9a7.1,7.1,0,0,1,7.027,6.5Z" transform="translate(-31 -300)" fill="#777"/>
      </g>
    </g>
  </g>
</svg>
